<svg xmlns:xlink="http://www.w3.org/1999/xlink" xmlns="http://www.w3.org/2000/svg" viewBox="0 0 61.86 84.94" data-name="Слой 2" id="_Слой_2">
  <defs>
    <style>
      .cls-1 {
        stroke-width: .18px;
      }

      .cls-1, .cls-2, .cls-3, .cls-4 {
        fill: none;
      }

      .cls-1, .cls-3 {
        stroke: #1d1d1b;
      }

      .cls-1, .cls-3, .cls-4 {
        stroke-miterlimit: 22.93;
      }

      .cls-5 {
        clip-path: url(#clippath);
      }

      .cls-2, .cls-6, .cls-7, .cls-8, .cls-9 {
        stroke-width: 0px;
      }

      .cls-3, .cls-4 {
        stroke-width: .23px;
      }

      .cls-4 {
        stroke: #6d6253;
      }

      .cls-10 {
        clip-path: url(#clippath-1);
      }

      .cls-6 {
        fill-rule: evenodd;
      }

      .cls-6, .cls-8 {
        fill: #998467;
      }

      .cls-7 {
        fill: #1d1d1b;
      }

      .cls-9 {
        fill: #fbf1e4;
      }
    </style>
    <clipPath id="clippath">
      <rect ry="5.3" rx="5.3" height="84.94" width="61.86" x="0" class="cls-2"/>
    </clipPath>
    <clipPath id="clippath-1">
      <rect height="84.94" width="61.86" class="cls-2"/>
    </clipPath>
  </defs>
  <g data-name="Слой 1" id="_Слой_1-2">
    <g class="cls-5">
      <rect height="84.94" width="61.86" class="cls-9"/>
      <g class="cls-10">
        <rect height="86.79" width="63.71" y="-.92" x="-.92" class="cls-8"/>
        <path d="M34.01-.92c-.36,2.88-1.6,5.49-.38,8.17.62,1.37-.16,16.7.04,25.29.2,8.2.47,16.61.5,24.81.02,7.1-1.29,11.5-1.42,18.59-.06,3.18-.02,6.52.07,9.94" class="cls-4"/>
        <path d="M35.24-.92c.2,2.86,1.05,5.4-.51,8.17-.76,1.34-.16,16.7.04,25.29.2,8.2.47,16.61.5,24.81.02,7.1-1.43,11.86-1.57,18.95-.06,3.1-.03,6.31.07,9.58" class="cls-4"/>
        <path d="M36.41-.92c.16,2.84.88,5.31-.31,8.17-1.08,2.59-.73,17.42-.52,26.01.2,8.2,2.32,17.89,1.01,25.84-1.16,7.05.26,12.42.13,19.51-.05,2.43-.1,4.85-.16,7.27" class="cls-4"/>
        <path d="M37.45-.92c.27,3.97,1.71,11.52.5,14.44-1.08,2.59-1.55,11.15-1.34,19.73.2,8.2,1.51,17.86.75,25.91-.66,7.08.52,12.34.38,19.43-.05,2.43.02,4.85.04,7.27" class="cls-4"/>
        <path d="M32.39-.92c-.17,2.88-.62,5.49.6,8.17.4.89-.34,8.24-.56,15.23-.12,3.78.37,7.04.44,10.05.2,8.2-1.07,16.34-1.05,24.54.02,7.1.62,9.37-.03,18.85-.22,3.18-.3,6.52-.28,9.94" class="cls-4"/>
        <path d="M31.68-.92c-.21,4.47.4,6.89.45,10.19.06,3.87-.21,7.91-.38,13.24-.12,3.78-.65,8.62-.64,13.16.02,7.41.07,13.25.09,21.46.02,7.09.36,9.35-.29,18.83-.21,3.08-.15,6.52-.07,9.92" class="cls-4"/>
        <path d="M30.42-.92c-.21,4.47.4,6.89.45,10.19.06,3.87-.21,7.91-.38,13.24-.12,3.78-.65,8.62-.64,13.16.02,7.41.07,13.25.09,21.46.02,7.09.36,9.35-.29,18.83-.12,1.76-.24,5.69-.34,9.92" class="cls-4"/>
        <path d="M29.68-.92c-.3,4.46-.31,6.82-.26,10.13.06,3.87.32,8.01.15,13.34-.12,3.78-.36,8.69-.35,13.23.02,7.41-.46,13.15-.44,21.36.02,7.09.36,9.35-.29,18.83-.12,1.76-.24,5.69-.34,9.92" class="cls-4"/>
        <path d="M28.03-.92c-.18,4.73.61,8.73.66,12.05.06,3.87-.17,6-.34,11.33-.12,3.78.15,8.78.17,13.32.02,7.41-.46,13.15-.44,21.36.02,7.09.36,9.35-.29,18.83-.12,1.76-.24,5.69-.34,9.92" class="cls-4"/>
        <path d="M27.21-.92c-.36,4.51-.73,7.18-.68,10.49.07,4.85,1.15,8.78,1.02,12.89-.12,3.78-.14,9.05-.13,13.59.01,3.74.36,7.05.32,10.4-.04,3.29-.47,6.62-.46,10.68.01,4.28-.83,6.8-.88,10.2-.03,2.24.84,4.86.59,8.62-.12,1.76-.24,5.69-.34,9.92" class="cls-4"/>
        <path d="M25.72-.92c-.36,4.51-.73,7.18-.68,10.49.07,4.85.72,7.7.59,11.81-.12,3.78.59,10.13.6,14.67.01,3.74.07,7.05.02,10.4-.04,3.29-.18,6.65-.17,10.72.01,4.28-.15,6.83-.2,10.24-.03,2.24-.13,4.8-.38,8.56-.12,1.76-.24,5.69-.34,9.92" class="cls-4"/>
        <path d="M24.22-.92c-.36,4.51-.73,7.18-.68,10.49.07,4.85,1.15,8.78,1.02,12.89-.12,3.78-.14,9.05-.13,13.59.01,3.74.84,6.71.8,10.06-.04,3.29-1.25,6.72-1.24,10.78.01,4.28,1.1,6.7,1.06,10.1-.03,2.24-.8,5.2-1.05,8.96-.12,1.76-.24,5.69-.34,9.92" class="cls-4"/>
        <path d="M22.98-.92c-.28,4.51-.1,7.18-.05,10.49.07,4.85.52,8.78.39,12.89-.12,3.78-.14,9.05-.13,13.59.01,3.74.05,6.71,0,10.06-.04,3.29-.05,6.72-.04,10.78.01,4.28.02,6.7-.02,10.1-.03,2.24-.13,5.2-.39,8.96-.12,1.76-.13,5.7-.1,9.92" class="cls-4"/>
        <path d="M32.62,56.51c-.05,3.32.1,6.01.32,6,.22,0,.44-2.71.49-6.04.05-3.32-.1-6.01-.32-6-.22,0-.44,2.71-.49,6.04Z" class="cls-6"/>
        <path d="M32.62,56.51c-.05,3.32.1,6.01.32,6,.22,0,.44-2.71.49-6.04.05-3.32-.1-6.01-.32-6-.22,0-.44,2.71-.49,6.04Z" class="cls-4"/>
        <path d="M33.73,4.43c-.05.79.1,1.43.32,1.43.22,0,.44-.65.49-1.44.05-.79-.1-1.43-.32-1.43-.22,0-.44.65-.49,1.44Z" class="cls-6"/>
        <path d="M33.73,4.43c-.05.79.1,1.43.32,1.43.22,0,.44-.65.49-1.44.05-.79-.1-1.43-.32-1.43-.22,0-.44.65-.49,1.44Z" class="cls-4"/>
        <path d="M36.25,10.61c-.08,1.44.04,3.26.44,3.26.4,0,.94-1.83,1.02-3.27.08-1.44-.01-3.49-.42-3.49-.4,0-.97,2.06-1.05,3.5Z" class="cls-6"/>
        <path d="M36.25,10.61c-.08,1.44.04,3.26.44,3.26.4,0,.94-1.83,1.02-3.27.08-1.44-.01-3.49-.42-3.49-.4,0-.97,2.06-1.05,3.5Z" class="cls-4"/>
        <path d="M36.65,10.61c-.03.8.04,1.74.19,1.74.15,0,.33-.94.36-1.74.03-.8.1-1.91-.05-1.91-.15,0-.47,1.12-.5,1.92Z" class="cls-6"/>
        <path d="M36.65,10.61c-.03.8.04,1.74.19,1.74.15,0,.33-.94.36-1.74.03-.8.1-1.91-.05-1.91-.15,0-.47,1.12-.5,1.92Z" class="cls-4"/>
        <path d="M31.65,35.7c0,1.28.11,2.3.26,2.29.15-.01.29-1.05.29-2.33,0-1.28-.11-2.3-.26-2.29-.15.01-.29,1.05-.29,2.33Z" class="cls-6"/>
        <path d="M31.65,35.7c0,1.28.11,2.3.26,2.29.15-.01.29-1.05.29-2.33,0-1.28-.11-2.3-.26-2.29-.15.01-.29,1.05-.29,2.33Z" class="cls-4"/>
        <path d="M23.72,67.19c0,1.28.11,2.3.26,2.29.15-.01.29-1.05.29-2.33,0-1.28-.11-2.3-.26-2.29-.15.01-.29,1.05-.29,2.33Z" class="cls-6"/>
        <path d="M23.72,67.19c0,1.28.11,2.3.26,2.29.15-.01.29-1.05.29-2.33,0-1.28-.11-2.3-.26-2.29-.15.01-.29,1.05-.29,2.33Z" class="cls-4"/>
        <path d="M23.85,45.55c0,1.57.11,2.82.26,2.81.15-.01.29-1.29.29-2.86,0-1.57-.11-2.83-.26-2.81-.15.01-.29,1.29-.29,2.86Z" class="cls-6"/>
        <path d="M23.85,45.55c0,1.57.11,2.82.26,2.81.15-.01.29-1.29.29-2.86,0-1.57-.11-2.83-.26-2.81-.15.01-.29,1.29-.29,2.86Z" class="cls-4"/>
        <path d="M17.28,42.89c-.01,2.6.15,4.69.36,4.67.21-.02.39-2.15.4-4.75.01-2.6-.15-4.69-.36-4.67-.21.02-.39,2.15-.4,4.75Z" class="cls-6"/>
        <path d="M17.28,42.89c-.01,2.6.15,4.69.36,4.67.21-.02.39-2.15.4-4.75.01-2.6-.15-4.69-.36-4.67-.21.02-.39,2.15-.4,4.75Z" class="cls-4"/>
        <path d="M-.92,62.54c.37,3.17.8,6.26.87,10.17.08,4.18.05,8.63-.03,13.16M-.7-.92C-.37.74-.19,2.35-.92,3.99" class="cls-4"/>
        <path d="M.51-.92c.06,1.67-.06,3.29-.81,4.94-.4.89.34,8.24.56,15.23.12,3.78-.37,7.04-.44,10.05-.2,8.2,1.07,16.34,1.05,24.54-.02,7.1-.62,9.37.03,18.85.29,4.18.33,8.62.25,13.16" class="cls-4"/>
        <path d="M1.02-.92c-.1,2.61-.43,4.55-.47,6.97-.06,3.87.21,7.91.38,13.24.12,3.78.65,8.62.64,13.16-.02,7.41-.07,13.25-.09,21.46-.02,7.09-.36,9.35.29,18.83.28,4,.08,8.63.01,12.97v.17" class="cls-4"/>
        <path d="M2.28-.92c-.1,2.61-.43,4.55-.47,6.97-.06,3.87.21,7.91.38,13.24.12,3.78.65,8.62.64,13.16-.02,7.41-.07,13.25-.09,21.46-.02,7.09-.36,9.35.29,18.83.15,2.2.31,7.82.4,13.14" class="cls-4"/>
        <path d="M3.2-.92c.12,2.58.11,4.49.07,6.9-.06,3.87-.32,8.01-.15,13.34.12,3.78.36,8.69.35,13.23-.02,7.41.46,13.15.44,21.36-.02,7.09-.36,9.35.29,18.83.15,2.2.31,7.82.4,13.14" class="cls-4"/>
        <path d="M4.79-.92c-.03,2.6-.5,4.45-.54,6.87-.06,3.87-.08,7.95.09,13.28.12,3.78.3,8.83.29,13.37-.02,7.41.91,13.05.89,21.25-.02,7.09-1.27,9.4-.62,18.88.15,2.2.31,7.82.4,13.14" class="cls-4"/>
        <path d="M5.59-.92c.04,2.62-.08,4.57-.12,6.99-.06,3.87-.06,7.78.11,13.11.12,3.78.98,9.04.97,13.58-.02,7.41.08,13.05.06,21.25-.02,7.09-.82,9.35-.16,18.83.15,2.2.08,7.75-.03,13.04" class="cls-4"/>
        <path d="M.07,52.57c-.01,3.72-.15,6.73-.31,6.71-.16-.01-.28-3.04-.27-6.76.01-3.72.15-6.73.31-6.71.16.01.28,3.04.27,6.76Z" class="cls-6"/>
        <path d="M.07,52.57c-.01,3.72-.15,6.73-.31,6.71-.16-.01-.28-3.04-.27-6.76.01-3.72.15-6.73.31-6.71.16.01.28,3.04.27,6.76Z" class="cls-4"/>
        <path d="M34.61,79.02c0,1.56.02,4.16.05,6.84h.89c.08-2.71.12-5.33.12-6.9-.02-4.31-.27-7.79-.56-7.77-.29.01-.51,3.52-.49,7.83Z" class="cls-6"/>
        <path d="M34.61,79.02c0,1.56.02,4.16.05,6.84h.89c.08-2.71.12-5.33.12-6.9-.02-4.31-.27-7.79-.56-7.77-.29.01-.51,3.52-.49,7.83Z" class="cls-4"/>
        <path d="M12.07,85.87c.09-1.15.15-2.35.17-3.65.19-10.01-.62-21.53-.9-32.19-.08-2.86.23-5.67.19-8.36-.07-5.1.69-8.45.45-13.51-.11-2.22-1.51-6.14-1.41-8.38L11.51-.92" class="cls-4"/>
        <path d="M11.08,85.87c.11-1.27.19-2.59.22-4.01.19-10.05-.57-21.29-1.35-31.85-.21-2.79.61-5.73.58-8.38-.07-5.1-.64-7.74-.89-12.8-.11-2.22-.26-6.81-.16-9.05L10.4-.92" class="cls-4"/>
        <path d="M8.48,85.87c-.14-2-.25-4.07-.21-6.31.24-12.7.8-25.18.61-37.88-.07-5.1.21-7.78-.04-12.84-.11-2.22-.05-9.31.09-11.54.39-6.46.22-11.4-.15-18.21" class="cls-4"/>
        <path d="M7.42,85.87c-.12-2-.21-4.06-.17-6.31.07-3.83-.13-7.66.02-11.48.34-8.77.86-17.58.73-26.44-.07-5.1.2-7.83-.05-12.89-.11-2.22-1.26-12.88-1.13-15.11.39-6.45,1.17-8.18.93-14.55" class="cls-4"/>
        <path d="M13,85.87c.05-1.09.12-2.3.21-3.65.87-12.68-.53-27.85-.71-40.55-.07-5.1.31-8.45.07-13.51-.11-2.22-.47-4.08-.64-9-.17-4.65.04-12.12.52-20.09" class="cls-4"/>
        <path d="M13.85,85.87c.06-1.1.13-2.31.22-3.67.28-4,.08-8.63.01-12.97-.15-9.41-.1-18.53-.23-27.22-.07-5.1-.19-8.79-.43-13.85-.11-2.22-.35-1.64-.64-9-.27-6.95.47-12.36,1.02-20.08" class="cls-4"/>
        <path d="M15.11,85.87c.06-1.1.13-2.31.22-3.67.28-4,.56-19.28.49-23.63-.15-9.41-.58-7.88-.7-16.56-.07-5.1-.64-8.71-.88-13.77-.11-2.22.75-3.68.46-11.05-.27-6.95-.3-10.54-.2-18.12" class="cls-4"/>
        <path d="M16.28,85.87c.06-1.1.13-2.31.22-3.67.28-4,.56-19.28.49-23.63-.15-9.41-1.06-7.88-1.19-16.56-.07-5.1,1.06-8.14.81-13.2-.11-2.22-1.33-.31-.75-11.62.55-10.64-.58-11.01.24-18.12" class="cls-4"/>
        <path d="M16.99,85.87c.06-1.1.13-2.31.22-3.67.28-4,.56-19.28.49-23.63-.15-9.41-1.06-7.88-1.19-16.56-.07-5.1,1.06-8.14.81-13.2-.11-2.22-.92-.31-.33-11.62.55-10.64-.65-11.01.16-18.12" class="cls-4"/>
        <path d="M18.06,85.87c-.11-1.1-.16-2.31-.07-3.67.28-4,.56-19.28.49-23.63-.15-9.41.5-7.95.37-16.63-.07-5.1-.5-8.07-.75-13.13-.11-2.22-.92-.31-.33-11.62.53-10.32.47-13.39,0-18.12" class="cls-4"/>
        <path d="M19.27,85.87c.06-1.09.13-2.3.22-3.67.28-4,.56-19.28.49-23.63-.15-9.41-.09-7.95-.22-16.63-.07-5.1-.35-9.56-.6-14.62-.11-2.22-.47,1.18.11-10.13.53-10.32.47-13.39,0-18.12" class="cls-4"/>
        <path d="M20.58,85.87c.16-1.13.32-2.35.41-3.67.28-4,.56-19.28.49-23.63-.15-9.41.5-7.95.37-16.63-.07-5.1-1.17-7.41-1.41-12.47-.11-2.22-.25-.97-.16-12.28.08-10.32.25-13.39-.17-18.12" class="cls-4"/>
        <path d="M22.03,85.87c.06-1.13.13-2.35.22-3.67.28-4-.01-19.18-.08-23.52-.15-9.41.39-8.73.26-17.41-.07-5.1-.49-6.73-.73-11.79-.11-2.22-.25-.97-.16-12.28.08-10.32.76-13.39.43-18.12" class="cls-4"/>
        <path d="M11.33,29.19c-.08-2.14-.33-3.86-.55-3.85-.22.01-.33,1.76-.25,3.89.08,2.14.33,3.86.55,3.85.22-.01.33-1.76.25-3.89Z" class="cls-6"/>
        <path d="M11.33,29.19c-.08-2.14-.33-3.86-.55-3.85-.22.01-.33,1.76-.25,3.89.08,2.14.33,3.86.55,3.85.22-.01.33-1.76.25-3.89Z" class="cls-4"/>
        <path d="M8.32,14.49c.1-2.14.11-5.76-.11-5.76-.22,0-.59,3.63-.69,5.77-.1,2.14.33,5.61.55,5.6.22,0,.16-3.48.26-5.62Z" class="cls-6"/>
        <path d="M8.32,14.49c.1-2.14.11-5.76-.11-5.76-.22,0-.59,3.63-.69,5.77-.1,2.14.33,5.61.55,5.6.22,0,.16-3.48.26-5.62Z" class="cls-4"/>
        <path d="M16.1,27.94c-.04-.93-.35-1.68-.7-1.68-.35,0-.6.75-.56,1.68.04.93.35,3.66.7,3.66.35,0,.6-2.73.56-3.65Z" class="cls-6"/>
        <path d="M16.1,27.94c-.04-.93-.35-1.68-.7-1.68-.35,0-.6.75-.56,1.68.04.93.35,3.66.7,3.66.35,0,.6-2.73.56-3.65Z" class="cls-4"/>
        <path d="M15.67,27.94c-.01-.44-.12-.8-.23-.8-.12,0-.2.36-.19.8.01.44.12.8.23.8.12,0,.2-.36.19-.8Z" class="cls-6"/>
        <path d="M15.67,27.94c-.01-.44-.12-.8-.23-.8-.12,0-.2.36-.19.8.01.44.12.8.23.8.12,0,.2-.36.19-.8Z" class="cls-4"/>
        <path d="M14.1,21.1c-.06-2.21-.2-9.71-.44-9.7-.24,0-.42,7.68-.36,9.76.06,2.08.31,2.79.53,2.77.22-.02.33-.63.27-2.83Z" class="cls-6"/>
        <path d="M14.1,21.1c-.06-2.21-.2-9.71-.44-9.7-.24,0-.42,7.68-.36,9.76.06,2.08.31,2.79.53,2.77.22-.02.33-.63.27-2.83Z" class="cls-4"/>
        <path d="M10.39,79.13c-.02-4.31-.1-16.58-.4-16.57-.29.01-.68,12.32-.66,16.62.01,2.85.13,5.33.29,6.69h.54c.15-1.36.24-3.87.23-6.74Z" class="cls-6"/>
        <path d="M10.39,79.13c-.02-4.31-.1-16.58-.4-16.57-.29.01-.68,12.32-.66,16.62.01,2.85.13,5.33.29,6.69h.54c.15-1.36.24-3.87.23-6.74Z" class="cls-4"/>
        <path d="M61.23,85.87c-.1-8.07-.23-18.96-.14-22.77.13-5.36.3-11.32.4-16.74.05-2.7.08-5.4.09-8.07.02-7.1-1.29-11.5-1.42-18.59-.04-2.18.54-16.95.62-20.63" class="cls-4"/>
        <path d="M60.5,85.87c-.1-2.93-.5-7.91-.65-12.71-.12-3.78.37-7.04.44-10.05.2-8.2-1.07-16.34-1.05-24.54.02-7.1.62-9.37-.03-18.85-.35-5.05.37-16.97.44-20.63" class="cls-4"/>
        <path d="M59.56,85.87c.03-3.72-.23-7.64-.39-12.74-.12-3.78-.65-8.62-.64-13.16.02-7.41.07-13.25.09-21.46.02-7.09.36-9.35-.29-18.83-.15-2.2-.02-16.51.04-20.61" class="cls-4"/>
        <path d="M58.3,85.87c.03-3.72-.23-7.64-.39-12.74-.12-3.78-.65-8.62-.64-13.16.02-7.41.07-13.25.09-21.46.02-7.09.36-9.35-.29-18.83-.23-3.33-.46-14.46-.5-20.61" class="cls-4"/>
        <path d="M56.85,85.87c.07-3.71.3-7.7.14-12.78-.12-3.78-.36-8.69-.35-13.23.02-7.41-.46-13.15-.44-21.36.02-7.09.36-9.35-.29-18.83-.23-3.33-.46-14.46-.5-20.61" class="cls-4"/>
        <path d="M55.87,85.87c.05-3.69.06-7.63-.1-12.69-.12-3.78-.3-8.83-.29-13.37.02-7.41-.91-13.05-.89-21.25.02-7.09,1.27-9.4.62-18.88-.23-3.33-.46-14.46-.5-20.61" class="cls-4"/>
        <path d="M54.64,85.87c.05-3.71.04-7.52-.12-12.63-.12-3.78-.98-9.04-.97-13.58.02-7.41-.08-13.05-.06-21.25.02-7.09.82-9.35.16-18.83-.23-3.33.06-14.38.2-20.5" class="cls-4"/>
        <path d="M57.74-.92c-.04,3.42-.16,5.95-.29,5.94-.13-.01-.24-2.54-.26-5.94h.56Z" class="cls-6"/>
        <path d="M57.74-.92c-.04,3.42-.16,5.95-.29,5.94-.13-.01-.24-2.54-.26-5.94h.56Z" class="cls-4"/>
        <path d="M60.04,39.84c.01-3.72.15-6.73.31-6.71.16.01.28,3.04.27,6.76-.01,3.72-.15,6.73-.31,6.71-.16-.01-.28-3.04-.27-6.76Z" class="cls-6"/>
        <path d="M60.04,39.84c.01-3.72.15-6.73.31-6.71.16.01.28,3.04.27,6.76-.01,3.72-.15,6.73-.31,6.71-.16-.01-.28-3.04-.27-6.76Z" class="cls-4"/>
        <path d="M62.16,85.87c-.11-4.94-.24-10.63-.3-12.57-.12-3.78-.07-9.1-.06-13.64.01-3.63.14-10.1.25-13.37.11-3.22.21-3.89.22-7.83.02-7.09-.32-9.56-.97-19.04-.08-1.23.24-16.2.29-20.35" class="cls-4"/>
        <path d="M48.84-.92c-.39,3.51-.9,6.82-.98,11.11-.19,10.01.62,21.53.9,32.19.08,2.86-.23,5.67-.19,8.36.07,5.1-.69,8.45-.45,13.51.11,2.22,1.51,6.14,1.41,8.38l-.6,13.25" class="cls-4"/>
        <path d="M49.91-.92c-.43,3.66-1.01,7.13-1.09,11.47-.19,10.05.57,21.29,1.35,31.85.21,2.79-.61,5.73-.58,8.38.07,5.1.64,7.74.89,12.8.11,2.22.26,6.81.16,9.05l-.6,13.25" class="cls-4"/>
        <path d="M51.26-.92c-.01,4.54.68,8.72.58,13.78-.24,12.7-.8,25.18-.61,37.88.07,5.1-.21,7.78.04,12.84.11,2.22.04,9.31-.09,11.54-.23,3.89-.27,7.22-.17,10.75" class="cls-4"/>
        <path d="M52.29-.92c.09,4.55.67,8.69.58,13.78-.07,3.83.13,7.66-.02,11.48-.34,8.77-.86,17.58-.73,26.44.07,5.1-.2,7.83.05,12.89.11,2.22,1.26,12.88,1.13,15.11-.19,3.11-.47,5.12-.68,7.09" class="cls-4"/>
        <path d="M47.15-.92c.09,2.86.11,5.89-.25,11.11-.87,12.68.53,27.85.71,40.55.07,5.1-.31,8.45-.07,13.51.11,2.22.47,4.08.64,9,.11,3.15.05,7.6-.15,12.62" class="cls-4"/>
        <path d="M46.43-.92c.02,2.86-.03,5.89-.39,11.13-.28,4-.08,8.63-.01,12.97.15,9.41.1,18.53.23,27.22.07,5.1.19,8.79.43,13.85.11,2.22.35,1.64.64,9,.18,4.5-.07,8.36-.42,12.62" class="cls-4"/>
        <path d="M45.17-.92c.02,2.86-.03,5.89-.39,11.13-.28,4-.56,19.28-.49,23.63.15,9.41.58,7.88.7,16.56.07,5.1.64,8.71.88,13.77.11,2.22-.75,3.68-.46,11.05.17,4.25.24,7.24.25,10.65" class="cls-4"/>
        <path d="M44-.92c.02,2.86-.03,5.89-.39,11.13-.28,4-.56,19.28-.49,23.63.15,9.41,1.06,7.88,1.19,16.56.07,5.1-1.06,8.14-.81,13.2.11,2.22,1.33.31.75,11.62-.29,5.53-.12,8.29,0,10.65" class="cls-4"/>
        <path d="M43.29-.92c.02,2.86-.03,5.89-.39,11.13-.28,4-.56,19.28-.49,23.63.15,9.41,1.06,7.88,1.19,16.56.07,5.1-1.06,8.14-.81,13.2.11,2.22.92.31.33,11.62-.29,5.53-.1,8.29.03,10.65" class="cls-4"/>
        <path d="M41.69-.92c-.09.81-.15,1.63-.16,2.51-.03,2.24.84,4.86.59,8.62-.28,4-.56,19.28-.49,23.63.15,9.41-.5,7.95-.37,16.63.07,5.1.5,8.07.75,13.13.11,2.22.92.31.33,11.62-.25,4.84-.37,8.08-.38,10.65" class="cls-4"/>
        <path d="M41.06-.92c-.02.83-.04,1.67-.05,2.57-.03,2.24-.13,4.8-.38,8.56-.28,4-.56,19.28-.49,23.63.15,9.41.09,7.95.22,16.63.07,5.1.35,9.56.6,14.62.11,2.22.47-1.18-.11,10.13-.25,4.84-.37,8.08-.38,10.65" class="cls-4"/>
        <path d="M40.06-.92c.08.69.13,1.41.12,2.17-.03,2.24-.17,5.71-.43,9.47-.28,4-1.19,18.78-1.12,23.12.15,9.41.23,7.95.36,16.63.07,5.1.44,7.41.68,12.47.11,2.22.25.97.16,12.28-.04,4.84-.09,8.08-.1,10.65" class="cls-4"/>
        <path d="M38.27-.92c0,.69-.01,1.41-.02,2.17-.03,2.24.99,5.27.73,9.03-.28,4-1.79,18.2-1.47,23.4.57,9.4.67,8.81.8,17.49.07,5.1-.13,6.71.11,11.77.11,2.22.25.97.16,12.28-.04,4.84-.2,8.08-.34,10.65" class="cls-4"/>
        <path d="M48.79,63.22c.08,2.14.33,3.86.55,3.85.22-.01.33-1.76.25-3.89-.08-2.14-.33-3.86-.55-3.85-.22.01-.33,1.76-.25,3.89Z" class="cls-6"/>
        <path d="M48.79,63.22c.08,2.14.33,3.86.55,3.85.22-.01.33-1.76.25-3.89-.08-2.14-.33-3.86-.55-3.85-.22.01-.33,1.76-.25,3.89Z" class="cls-4"/>
        <path d="M51.79,77.92c-.1,2.14-.11,5.76.11,5.76.22,0,.59-3.63.7-5.77.1-2.14-.33-5.61-.55-5.6-.22,0-.16,3.48-.26,5.62Z" class="cls-6"/>
        <path d="M51.79,77.92c-.1,2.14-.11,5.76.11,5.76.22,0,.59-3.63.7-5.77.1-2.14-.33-5.61-.55-5.6-.22,0-.16,3.48-.26,5.62Z" class="cls-4"/>
        <path d="M44.01,64.47c.04.93.35,1.68.7,1.68.35,0,.6-.75.56-1.68-.04-.93-.35-3.66-.7-3.66-.35,0-.6,2.73-.56,3.65Z" class="cls-6"/>
        <path d="M44.01,64.47c.04.93.35,1.68.7,1.68.35,0,.6-.75.56-1.68-.04-.93-.35-3.66-.7-3.66-.35,0-.6,2.73-.56,3.65Z" class="cls-4"/>
        <path d="M44.44,64.47c.01.44.12.8.23.8s.2-.36.19-.8c-.01-.44-.12-.8-.23-.81-.12,0-.2.36-.19.8Z" class="cls-6"/>
        <path d="M44.44,64.47c.01.44.12.8.23.8s.2-.36.19-.8c-.01-.44-.12-.8-.23-.81-.12,0-.2.36-.19.8Z" class="cls-4"/>
        <path d="M46.01,71.31c.06,2.21.2,9.71.44,9.7.24,0,.42-7.68.36-9.76-.06-2.08-.31-2.79-.53-2.77-.22.02-.33.63-.27,2.83Z" class="cls-6"/>
        <path d="M46.01,71.31c.06,2.21.2,9.71.44,9.7.24,0,.42-7.68.36-9.76-.06-2.08-.31-2.79-.53-2.77-.22.02-.33.63-.27,2.83Z" class="cls-4"/>
        <path d="M49.73,13.28c.02,4.31.1,16.58.4,16.57.29-.01.68-12.32.66-16.62-.02-4.31-.27-7.79-.56-7.77-.29.01-.51,3.52-.49,7.83Z" class="cls-6"/>
        <path d="M49.73,13.28c.02,4.31.1,16.58.4,16.57.29-.01.68-12.32.66-16.62-.02-4.31-.27-7.79-.56-7.77-.29.01-.51,3.52-.49,7.83Z" class="cls-4"/>
      </g>
      <path d="M16.87,41.46s-.09-.03-.18-.09l-1.52-5.66-.65-.21v-.45h2.56v.5l-.7.21.74,3,.31,1.52h.12l.31-1.33c.4-1.66.65-2.72.74-3.18l-.73-.21v-.5h2.41v.45l-.65.21-1.49,5.59c-.22.03-.46.07-.72.09-.26.03-.44.05-.56.06" class="cls-7"/>
      <path d="M21.01,34.62l.91-.05.18.24-.06.94h-.94l-.08-1.13ZM21.52,41.48s-.13-.06-.25-.17c-.13-.12-.19-.19-.19-.23v-3.78l-.39-.13v-.44c.63-.11.98-.17,1.05-.17.04,0,.12.05.24.16.12.11.18.19.18.24v3.77l.38.12v.44c-.61.13-.95.19-1.02.19Z" class="cls-7"/>
      <path d="M23.91,41.48s-.11-.05-.21-.16c-.11-.1-.16-.17-.16-.21v-5.77l-.39-.15v-.44c.68-.12,1.05-.18,1.11-.18.03,0,.1.05.2.15.1.1.15.17.15.21v5.75l.38.16v.44c-.65.13-1.01.19-1.08.19" class="cls-7"/>
      <path d="M26.37,41.48s-.11-.05-.21-.16c-.11-.1-.16-.17-.16-.21v-5.77l-.39-.15v-.44c.68-.12,1.05-.18,1.11-.18.03,0,.1.05.2.15.1.1.15.17.15.21v5.75l.38.16v.44c-.65.13-1.01.19-1.08.19" class="cls-7"/>
      <path d="M29.94,40.63c.07,0,.36-.13.88-.39v-2.82c-.17-.06-.38-.12-.63-.17-.25-.05-.42-.07-.51-.06-.13.03-.22.19-.28.47-.06.29-.09.76-.09,1.44,0,.34.04.62.11.85.07.23.16.4.26.51.1.11.19.17.27.17M29.82,41.48c-.31,0-.59-.09-.84-.26-.25-.17-.46-.43-.61-.77-.15-.34-.23-.76-.23-1.26,0-.33.02-.63.07-.92.05-.28.11-.5.19-.67.12-.16.38-.38.79-.65.41-.27.68-.41.81-.41.08,0,.35.03.82.1.47.07.83.12,1.08.16v3.89l.37.15v.45c-.64.12-.99.18-1.06.18-.03,0-.1-.05-.2-.16-.11-.1-.16-.17-.16-.21v-.38c-.64.5-.98.74-1.03.74Z" class="cls-7"/>
      <path d="M35.27,42.75c.08,0,.14-.16.19-.48.05-.32.07-.66.07-1.02v-.51l-.05-.02c-.24.22-.82.77-1.73,1.64v.06c.1.04.35.11.74.19.39.09.65.13.78.13M34.8,40.49c.06,0,.29-.14.69-.42v-2.64c-.13-.05-.3-.1-.5-.15-.2-.05-.35-.08-.45-.08-.31,0-.46.59-.46,1.76,0,.36.04.65.12.87.08.23.18.39.29.5.11.1.21.16.3.16ZM34.95,43.28c-.24,0-.6-.03-1.08-.1-.47-.07-.83-.13-1.07-.18l.09-.8,1.29-1.16c-.2-.01-.4-.1-.59-.27-.19-.17-.34-.41-.47-.71-.12-.31-.18-.66-.18-1.07,0-.23.02-.48.06-.74.04-.27.1-.47.17-.63.11-.15.37-.37.78-.64.41-.28.68-.41.8-.41.08,0,.34.03.79.1.45.07.79.13,1.03.17v4.77c0,.22-.1.46-.3.72-.2.27-.43.49-.7.68-.27.19-.47.28-.63.28Z" class="cls-7"/>
      <path d="M39.98,38.43c0-.82-.22-1.24-.65-1.25h-.08c-.11,0-.21.02-.3.05-.08.03-.15.18-.21.46-.06.28-.08.58-.08.92l1.33-.18ZM39.3,41.48c-.33,0-.63-.08-.91-.25-.28-.17-.5-.42-.66-.75-.16-.34-.25-.74-.25-1.23,0-.34.02-.66.07-.96.05-.3.11-.52.19-.67.08-.1.23-.25.46-.42.23-.18.46-.33.7-.47.23-.13.4-.2.49-.2.38,0,.7.06.94.19.24.13.43.36.57.71.13.35.2.83.2,1.46l-2.47.21c0,.38.05.69.15.92.1.23.22.39.36.49.14.1.27.15.4.15l1.4-.05v.47c-.24.08-.56.17-.93.27-.38.09-.61.14-.71.14Z" class="cls-7"/>
      <path d="M42.52,41.48s-.11-.05-.21-.16c-.11-.1-.16-.17-.16-.21v-3.8l-.39-.14v-.44c.62-.11.97-.17,1.04-.17.03,0,.11.06.24.17.12.12.18.19.18.21l-.02.39c.51-.55.79-.83.83-.83.13,0,.37.06.72.17.02.05.04.11.05.17.01.07.02.13.02.18s-.05.18-.14.36c-.09.19-.16.28-.18.3-.27-.1-.46-.16-.58-.16-.05,0-.14.03-.27.09-.13.06-.27.13-.41.21v2.8l.57.17v.48c-.78.13-1.21.19-1.28.19" class="cls-7"/>
      <path d="M47.17,41.48c-.15,0-.46-.02-.92-.05-.46-.03-.81-.06-1.05-.09l.02-1.56h.58s.22.8.22.8c.15.06.34.11.57.15.23.05.39.07.5.07.06,0,.12-.07.19-.21.07-.14.1-.27.1-.37,0-.17-.05-.3-.16-.4-.11-.1-.33-.24-.67-.42-.08-.04-.15-.08-.19-.1-.43-.24-.73-.45-.9-.63-.16-.18-.25-.4-.25-.65,0-.24.02-.41.06-.52.12-.18.31-.38.58-.6.27-.22.46-.32.58-.32.24,0,.56,0,.94.03.38.02.67.04.86.06l-.03,1.32h-.64l-.07-.56c-.06-.02-.24-.06-.54-.1-.3-.05-.49-.07-.56-.07-.14,0-.21.13-.21.4,0,.13.05.24.16.33.1.09.22.18.35.26.13.08.21.13.26.16l.25.15c.38.21.69.41.92.61.23.2.35.42.35.66,0,.18-.02.37-.07.56-.11.21-.31.45-.59.72-.28.27-.5.41-.65.41" class="cls-7"/>
      <path d="M21.98,49.59c.08,0,.24-.06.48-.17.24-.12.38-.19.4-.24.12-.58.18-1.3.18-2.16s-.1-1.52-.3-1.94c-.2-.42-.57-.63-1.1-.63-.34,0-.58.04-.73.12-.15.08-.27.33-.36.75-.09.42-.13.98-.13,1.67s.05,1.19.15,1.56c.1.37.26.64.48.8.22.16.54.24.94.24M22.05,50.28c-.96,0-1.67-.25-2.14-.74-.47-.5-.7-1.27-.7-2.34,0-.46.03-.88.08-1.26.06-.38.13-.69.23-.93.12-.17.3-.35.56-.54.25-.2.5-.36.76-.5.25-.14.44-.21.55-.21.96,0,1.67.25,2.14.74.47.49.71,1.27.71,2.34,0,.84-.09,1.57-.27,2.2-.12.15-.31.33-.57.53-.26.2-.52.37-.79.51-.26.14-.45.21-.56.21Z" class="cls-7"/>
      <path d="M26.47,49.43c.07,0,.36-.13.88-.39v-2.82c-.17-.06-.38-.12-.63-.17-.25-.05-.42-.07-.51-.06-.13.03-.22.19-.28.47-.06.29-.09.76-.09,1.44,0,.34.04.62.11.85.07.23.16.4.26.51.1.11.19.17.27.17M26.36,50.28c-.31,0-.59-.09-.84-.26-.25-.17-.46-.43-.61-.77-.15-.34-.23-.76-.23-1.26,0-.33.02-.63.07-.92.05-.28.11-.5.19-.67.12-.16.38-.38.79-.65.41-.27.68-.41.81-.41.08,0,.35.03.82.1.47.07.83.12,1.08.16v3.89l.37.15v.45c-.64.12-.99.18-1.06.18-.03,0-.1-.05-.2-.16-.11-.1-.16-.17-.16-.21v-.38c-.64.5-.98.74-1.03.74Z" class="cls-7"/>
      <path d="M32.48,50.28s-.1-.05-.21-.14c-.11-.09-.19-.16-.22-.2l-1.33-2.05v-.46l1.19-1.35-.5-.07v-.54l1.49-.08s.08.07.13.21c.05.14.08.25.08.31l-1.52,1.6,1.44,1.98.42.17v.44c-.59.13-.91.19-.96.19M29.82,50.28s-.11-.05-.21-.16c-.11-.1-.16-.17-.16-.21v-5.77l-.39-.15v-.44c.68-.12,1.05-.18,1.11-.18.03,0,.1.05.2.15.1.1.15.17.15.21v5.75l.37.16v.44c-.64.13-1,.19-1.07.19Z" class="cls-7"/>
      <path d="M38.36,49.61c.29,0,.51-.24.68-.73.17-.49.25-1.14.25-1.97,0-.45-.04-.87-.12-1.25-.08-.38-.19-.68-.32-.91-.14-.23-.3-.34-.49-.34l-1.35.14v4.91l1.35.16ZM35.23,49.73l.64-.22v-4.99l-.64-.22v-.45h3.05c.38,0,.74.1,1.08.29.34.19.61.51.82.96.21.45.31,1.03.31,1.74,0,1.14-.19,1.98-.58,2.52-.38.54-.93.82-1.63.82h-3.05v-.45Z" class="cls-7"/>
      <path d="M43.42,47.23c0-.82-.22-1.24-.65-1.25h-.08c-.11,0-.21.02-.3.05-.08.03-.15.18-.21.46-.06.28-.08.58-.08.92l1.33-.18ZM42.74,50.28c-.33,0-.63-.08-.91-.25-.28-.17-.5-.42-.66-.75-.16-.34-.25-.74-.25-1.23,0-.34.02-.66.07-.96.05-.3.11-.52.19-.67.08-.1.23-.25.46-.42.23-.18.46-.33.7-.47.23-.13.4-.2.49-.2.38,0,.7.06.94.19.24.13.43.36.57.71.13.35.2.83.2,1.46l-2.47.21c0,.38.05.69.15.92.1.23.22.39.36.49.14.1.27.15.4.15l1.4-.05v.47c-.24.08-.56.17-.93.27-.38.09-.61.14-.71.14Z" class="cls-7"/>
      <path d="M45.59,50.28s-.11-.05-.21-.16c-.11-.1-.16-.17-.16-.21v-5.77l-.39-.15v-.44c.68-.12,1.05-.18,1.11-.18.03,0,.1.05.2.15.1.1.15.17.15.21v5.75l.38.16v.44c-.65.13-1.01.19-1.08.19" class="cls-7"/>
      <path d="M47.72,50.28s-.11-.05-.21-.16c-.11-.1-.16-.17-.16-.21v-5.77l-.39-.15v-.44c.68-.12,1.05-.18,1.11-.18.03,0,.1.05.2.15.1.1.15.17.15.21v5.75l.38.16v.44c-.65.13-1.01.19-1.08.19" class="cls-7"/>
      <path d="M14.22,46.56s.09-.04.22-.11c.05-.22.07-.47.07-.75,0-.23-.04-.41-.12-.55-.08-.14-.2-.21-.36-.21-.07,0-.12.01-.17.03-.04.02-.08.1-.1.24-.03.14-.04.32-.04.55,0,.3.05.5.15.62.1.12.22.18.36.18M14.2,46.84c-.33,0-.58-.08-.74-.25-.17-.16-.25-.42-.25-.76,0-.14.01-.27.03-.4.02-.13.05-.22.08-.29.03-.05.1-.11.2-.19.1-.08.2-.15.31-.21.1-.06.18-.09.21-.09.32,0,.56.08.73.25.16.17.24.41.24.73,0,.15-.01.29-.03.42-.02.13-.05.24-.08.32-.05.07-.17.16-.35.28-.18.12-.3.18-.36.18Z" class="cls-7"/>
      <path d="M15.65,46.84s-.05-.02-.1-.07c-.05-.05-.07-.08-.07-.09v-1.7h-.22v-.2l.22-.09v-.18c0-.06.04-.15.12-.27.08-.12.17-.22.27-.31.1-.09.17-.14.22-.14s.12,0,.2,0c.09,0,.17.01.25.02.02.02.04.04.06.08.02.04.03.06.03.08,0,0-.01.05-.04.11-.03.06-.05.11-.06.15-.02,0-.09-.03-.23-.06-.13-.04-.22-.06-.26-.06-.02,0-.04.03-.06.08-.02.05-.03.11-.03.17v.35s.45,0,.45,0v.27h-.45v1.49l.25.08v.2c-.34.06-.53.08-.56.08" class="cls-7"/>
      <path d="M13.71,50.38s-.08-.02-.14-.07c-.06-.05-.1-.1-.15-.16-.04-.06-.06-.11-.06-.15v-1.48h-.3v-.17l.3-.14.3-.36s.09.02.18.06v.33h.45v.29h-.45v1.26c0,.09,0,.15.02.18.02.03.04.05.09.05h.39v.26c-.1.02-.21.04-.36.06-.14.02-.23.03-.27.03" class="cls-7"/>
      <path d="M14.86,50.38s-.05-.02-.09-.07c-.05-.05-.07-.08-.07-.09v-2.55l-.17-.06v-.19c.29-.05.45-.08.49-.08.02,0,.05.02.09.07.05.04.07.08.07.09l-.02,1.03h.02c.09-.06.18-.13.28-.2s.16-.11.17-.11c.23,0,.4.06.51.17.11.11.17.31.17.59v1.06l.17.07v.19c-.29.06-.45.08-.48.08-.02,0-.05-.02-.1-.07-.05-.05-.07-.08-.07-.09v-1.25c0-.17-.03-.27-.08-.32-.05-.05-.11-.07-.17-.07-.01,0-.1.04-.27.11-.02,0-.04.02-.07.03-.02.01-.04.02-.06.03v1.29l.17.07v.19c-.29.06-.45.08-.48.08" class="cls-7"/>
      <path d="M17.88,49.03c0-.36-.1-.55-.29-.55h-.04s-.09,0-.13.02c-.04.01-.07.08-.09.2-.02.12-.04.26-.04.4l.59-.08ZM17.58,50.38c-.14,0-.28-.04-.4-.11-.12-.07-.22-.18-.29-.33-.07-.15-.11-.33-.11-.54,0-.15.01-.29.03-.43.02-.13.05-.23.08-.3.03-.05.1-.11.2-.19.1-.08.2-.15.31-.21.1-.06.17-.09.21-.09.17,0,.31.03.42.08.11.06.19.16.25.31.06.15.09.37.09.64l-1.09.09c0,.17.02.3.07.41.04.1.1.17.16.22.06.04.12.06.18.06l.62-.02v.21c-.11.04-.24.08-.41.12-.17.04-.27.06-.31.06Z" class="cls-7"/>
      <line y2="60.95" x2="48.4" y1="60.95" x1="13.46" class="cls-3"/>
      <rect transform="translate(-34.04 39.72) rotate(-45)" height="2.49" width="2.49" y="59.7" x="29.69" class="cls-7"/>
      <rect transform="translate(-34.04 39.72) rotate(-45)" height="2.49" width="2.49" y="59.7" x="29.69" class="cls-1"/>
      <line y2="24" x2="48.4" y1="24" x1="13.46" class="cls-3"/>
      <rect transform="translate(-7.91 28.9) rotate(-45)" height="2.49" width="2.49" y="22.75" x="29.69" class="cls-7"/>
      <rect transform="translate(-7.91 28.9) rotate(-45)" height="2.49" width="2.49" y="22.75" x="29.69" class="cls-1"/>
    </g>
  </g>
</svg>