<svg version="1.1" xmlns="http://www.w3.org/2000/svg" xmlns:xlink="http://www.w3.org/1999/xlink" width="24.82" height="24.82" viewBox="0,0,24.82,24.82"><g transform="translate(-167.59001,-345.09001)"><g data-paper-data="{&quot;isPaintingLayer&quot;:true}" stroke="none" stroke-width="0" stroke-linecap="butt" stroke-linejoin="miter" stroke-miterlimit="10" stroke-dasharray="" stroke-dashoffset="0" style="mix-blend-mode: normal"><path d="M173.05001,369.91001c-3.01547,0 -5.46,-2.44453 -5.46,-5.46v-13.9c0,-3.01547 2.44453,-5.46 5.46,-5.46h13.9c3.01547,0 5.46,2.44453 5.46,5.46v13.9c0,3.01547 -2.44453,5.46 -5.46,5.46z" fill="#fbc901" fill-rule="nonzero"/><path d="M181.82,351.99001l-1.67,0.16l-0.42,-0.42l0.12,-0.31c0.1,-0.27 0.31,-0.49 0.66,-0.49h0.62c0.35,0 0.62,0.24 0.64,0.53l0.04,0.54zM173.53001,355.88001c0,-1.45 2.78,-3.76 5.31,-3.79l0.68,-0.02l0.38,0.38l1.9,-0.16l0.46,-0.12c1.76,-0.33 2.44,-0.23 4.17,-0.23v4.07c-0.9,-0.28 -2.15,-0.43 -3.51,-0.66l-0.57,-1.17l-0.22,1.25l-0.17,0.04l-2.31,-0.05l-0.75,-0.22c-1.53,0 -4.54,0.47 -5.35,0.68zM179.02002,362.48001l0.59,-6.61l1.19,0.04l1.18,0.06l0.59,6.5c-0.02,0.59 0.58,1.59 -1.77,1.59c-0.24,0 -0.46,-0.01 -0.64,-0.03l-0.31,-2.04l-0.11,1.97c-1.08,-0.27 -0.69,-1.01 -0.71,-1.49z" fill="#ffffff" fill-rule="evenodd"/></g></g></svg>