<svg version="1.1" xmlns="http://www.w3.org/2000/svg" xmlns:xlink="http://www.w3.org/1999/xlink" width="24.82" height="24.82" viewBox="0,0,24.82,24.82"><g transform="translate(-167.59,-345.09)"><g data-paper-data="{&quot;isPaintingLayer&quot;:true}" fill-rule="nonzero" stroke="none" stroke-width="0" stroke-linecap="butt" stroke-linejoin="miter" stroke-dasharray="" stroke-dashoffset="0" style="mix-blend-mode: normal"><path d="M173.05,369.91c-3.01547,0 -5.46,-2.44453 -5.46,-5.46v-13.9c0,-3.01547 2.44453,-5.46 5.46,-5.46h13.9c3.01547,0 5.46,2.44453 5.46,5.46v13.9c0,3.01547 -2.44453,5.46 -5.46,5.46z" fill="#fbc901" stroke-miterlimit="10"/><path d="M186.22,350.49c0.94,1.06 0.94,2.77 0,3.83c-0.64,0.72 -1.54,0.95 -2.35,0.69l-6.08,6.84c0.23,0.91 0.02,1.93 -0.61,2.65c-0.94,1.06 -2.46,1.06 -3.4,0c-0.94,-1.06 -0.94,-2.77 0,-3.83c0.64,-0.72 1.54,-0.95 2.35,-0.69l6.08,-6.84c-0.23,-0.91 -0.02,-1.93 0.61,-2.65c0.94,-1.06 2.46,-1.06 3.4,0z" fill="#ffffff" stroke-miterlimit="22.93"/></g></g></svg>