<svg version="1.1" xmlns="http://www.w3.org/2000/svg" xmlns:xlink="http://www.w3.org/1999/xlink" width="24.82" height="24.82" viewBox="0,0,24.82,24.82"><g transform="translate(-167.59,-345.09)"><g data-paper-data="{&quot;isPaintingLayer&quot;:true}" stroke="none" stroke-width="0" stroke-linecap="butt" stroke-linejoin="miter" stroke-miterlimit="10" stroke-dasharray="" stroke-dashoffset="0" style="mix-blend-mode: normal"><path d="M173.05,369.91c-3.01547,0 -5.46,-2.44453 -5.46,-5.46v-13.9c0,-3.01547 2.44453,-5.46 5.46,-5.46h13.9c3.01547,0 5.46,2.44453 5.46,5.46v13.9c0,3.01547 -2.44453,5.46 -5.46,5.46z" fill="#fbc901" fill-rule="nonzero"/><path d="M174.49,356.96c0.17,0 0.28,0.13 0.33,0.34c0.02,0.1 0.03,0.23 0.03,0.36c0,0.13 -0.01,0.26 -0.03,0.36c-0.05,0.21 -0.16,0.34 -0.33,0.34c-0.17,0 -0.28,-0.13 -0.33,-0.34c-0.02,-0.1 -0.03,-0.23 -0.03,-0.36c0,-0.13 0.01,-0.26 0.03,-0.36c0.05,-0.21 0.16,-0.34 0.33,-0.34M175.42,360.78c-0.12,0.23 -0.25,0.41 -0.39,0.53c-0.17,0.15 -0.35,0.22 -0.53,0.22c-0.45,0 -0.84,-0.45 -1.11,-1.18c-0.12,-0.34 -0.22,-0.76 -0.29,-1.22c0.15,0.45 0.78,1.95 1.34,1.95c0.27,0 0.46,-0.45 0.51,-0.56zM173.01,358.58c0,-0.19 -0.05,-0.93 -0.05,-1.05c0,-0.21 0.02,-0.42 0.08,-1.06c0.07,-0.72 0.24,-1.33 0.44,-1.78c0.26,-0.57 0.6,-0.91 1,-0.91c0.14,0 0.29,0.05 0.42,0.13c0.14,0.09 0.28,0.24 0.38,0.41c0.15,0.28 0.27,0.56 0.33,0.86c-0.05,-0.11 -0.11,-0.2 -0.18,-0.28c-0.46,-0.51 -1.33,-0.42 -1.75,0.53c-0.42,0.94 -0.39,1.77 -0.47,3.05c0,0.13 -0.18,-0.07 -0.19,0.08zM175.75,355.46c0.08,0.32 0.14,0.68 0.19,1.05c0.04,0.37 0.06,0.76 0.06,1.15c0,0.39 -0.02,0.77 -0.06,1.13c-0.04,0.37 -0.1,0.72 -0.18,1.03l-0.52,-0.13c0.07,-0.29 0.22,-0.62 0.25,-0.96c0.11,-1.02 0.26,-2.32 0.26,-3.27zM176.16,352.69c0.28,0.29 0.53,0.66 0.75,1.08c0.13,0.26 0.26,0.55 0.38,0.85l8.33,0.18l-8.11,0.45l0.04,0.14c0.04,0.16 0.08,0.32 0.12,0.48c0.08,0.32 0.14,0.66 0.17,0.99c0,0.06 0,0.11 0,0.17v0.05l9.37,0.18l-9.47,0.47c0,0.23 0,0.34 0,0.46c0.02,0.56 0.03,1.15 -0.07,1.64c-0.02,0.09 -0.04,0.17 -0.06,0.25l-0.03,0.12c-0.05,0.18 -0.12,0.34 -0.2,0.48c-0.09,0.17 -0.18,0.33 -0.27,0.49c-0.07,0.11 -0.13,0.22 -0.19,0.35c-0.25,0.5 -0.55,0.92 -0.89,1.23l-0.04,0.04h9.27c1.14,0 2.1,-1.47 2.44,-3.5l-1.3,-0.55l1.4,-0.23c0.02,-0.28 0.04,-0.57 0.04,-0.86c0,-0.75 -0.09,-1.44 -0.24,-2.04l-1.08,-0.18l0.91,-0.38c-0.47,-1.32 -1.31,-2.11 -2.23,-2.13l-3.99,-0.09l-0.36,-0.58l-1.12,-0.05l-1.13,0.51c-0.44,-0.03 -1.47,-0.18 -2.43,-0.02zM174.91,362.44c0.08,-0.16 0.21,-0.3 0.37,-0.39c0.12,-0.08 0.25,-0.2 0.37,-0.35c0.15,-0.18 0.29,-0.4 0.42,-0.66v-0.03c0.12,-0.2 0.23,-0.34 0.33,-0.49c0.06,-0.08 0.11,-0.16 0.16,-0.23c0.06,-0.13 0.11,-0.26 0.16,-0.41c0.09,-0.49 0.07,-1.15 0.06,-1.78v-0.34c-0.01,-0.13 0.02,-0.26 0.07,-0.38c0.02,-0.07 0.04,-0.13 0.05,-0.2c0,-0.03 0,-0.07 0,-0.11c0,-0.03 0,-0.05 0,-0.08c-0.02,-0.33 -0.07,-0.64 -0.13,-0.94v0c-0.05,-0.2 -0.1,-0.37 -0.16,-0.54c-0.02,-0.06 -0.04,-0.13 -0.04,-0.2l-0.06,-0.18c-0.05,-0.07 -0.1,-0.14 -0.13,-0.22l-0.15,-0.33l-0.16,-0.33c-0.13,-0.25 -0.27,-0.47 -0.42,-0.66c-0.13,-0.16 -0.27,-0.28 -0.4,-0.37c-0.15,-0.09 -0.26,-0.22 -0.33,-0.36c-0.14,-0.06 -0.28,-0.09 -0.42,-0.09c-0.6,0 -1.16,0.52 -1.58,1.36c-0.45,0.89 -0.72,2.14 -0.72,3.51c0,1.37 0.28,2.62 0.72,3.51c0.42,0.84 0.98,1.36 1.58,1.36c0.14,0 0.28,-0.03 0.42,-0.08zM178.41,351.82l0.91,-0.41c0.16,-0.07 0.34,-0.1 0.5,-0.08l1.06,0.05c0.32,0.02 0.59,0.18 0.75,0.43l0.1,0.16l3.47,0.08c0.71,0.02 1.37,0.31 1.92,0.84c0.48,0.46 0.88,1.1 1.16,1.89c0.04,0.11 0.05,0.22 0.05,0.33c0.09,0.11 0.14,0.24 0.16,0.38c0.08,0.33 0.14,0.67 0.18,1.01v0.03c0.04,0.37 0.07,0.75 0.07,1.13c0,0.11 0,0.27 -0.01,0.47v0c0,0.2 -0.02,0.35 -0.03,0.46c-0.01,0.15 -0.07,0.3 -0.15,0.42c0.05,0.14 0.07,0.29 0.04,0.45c-0.19,1.15 -0.58,2.15 -1.08,2.87c-0.6,0.85 -1.38,1.36 -2.27,1.36h-9.49c-0.5,0 -2.29,-0.48 -2.72,-0.86c-0.37,-0.31 -0.69,-0.75 -0.96,-1.28c-0.26,-0.52 -0.47,-1.14 -0.61,-1.81v0c-0.13,-0.64 -0.21,-1.34 -0.21,-2.07c0,-0.73 0.07,-1.4 0.2,-2.04v-0.03c0.15,-0.68 0.35,-1.29 0.62,-1.81c0.26,-0.53 0.59,-0.96 0.96,-1.28c0.44,-0.37 0.93,-0.58 1.46,-0.58c1.35,0 2.13,-0.22 3.92,-0.09z" fill="#ffffff" fill-rule="evenodd"/></g></g></svg>