<svg version="1.1" xmlns="http://www.w3.org/2000/svg" xmlns:xlink="http://www.w3.org/1999/xlink" width="24.82" height="24.82" viewBox="0,0,24.82,24.82"><g transform="translate(-167.59,-345.09)"><g data-paper-data="{&quot;isPaintingLayer&quot;:true}" stroke="none" stroke-width="0" stroke-linecap="butt" stroke-linejoin="miter" stroke-miterlimit="10" stroke-dasharray="" stroke-dashoffset="0" style="mix-blend-mode: normal"><path d="M173.05,369.91c-3.01547,0 -5.46,-2.44453 -5.46,-5.46v-13.9c0,-3.01547 2.44453,-5.46 5.46,-5.46h13.9c3.01547,0 5.46,2.44453 5.46,5.46v13.9c0,3.01547 -2.44453,5.46 -5.46,5.46z" fill="#e30613" fill-rule="nonzero"/><path d="M175.49,366.28c-0.25,0 -0.5,-0.07 -0.72,-0.19c-0.69,-0.4 -0.93,-1.29 -0.53,-1.98c0.18,-0.31 0.46,-0.54 0.8,-0.65l0.18,-0.06l1.91,-3.3l-2.54,-1.47l0.35,-1.07l1.58,0.59l4.06,-8.26l4.17,-1.06l1.17,4.14l-5.13,7.65l1.3,1.08l-0.75,0.84l-2.54,-1.47l-1.91,3.3l0.04,0.19c0.07,0.35 0.01,0.71 -0.16,1.02c-0.26,0.45 -0.74,0.73 -1.26,0.73z" fill="#ffffff" fill-rule="evenodd"/></g></g></svg>