<svg version="1.1" xmlns="http://www.w3.org/2000/svg" xmlns:xlink="http://www.w3.org/1999/xlink" width="24.82" height="24.82" viewBox="0,0,24.82,24.82"><g transform="translate(-167.59,-345.09)"><g data-paper-data="{&quot;isPaintingLayer&quot;:true}" stroke="none" stroke-width="0" stroke-linecap="butt" stroke-linejoin="miter" stroke-miterlimit="10" stroke-dasharray="" stroke-dashoffset="0" style="mix-blend-mode: normal"><path d="M173.05,369.91c-3.01547,0 -5.46,-2.44453 -5.46,-5.46v-13.9c0,-3.01547 2.44453,-5.46 5.46,-5.46h13.9c3.01547,0 5.46,2.44453 5.46,5.46v13.9c0,3.01547 -2.44453,5.46 -5.46,5.46z" fill="#fdfdfd" fill-rule="nonzero"/><g fill="#000000" fill-rule="evenodd"><path d="M182.46912,355.59989l1.28,0.49c0.57,0.22 0.85,0.86 0.63,1.42v0l-0.02,0.05c-0.03,-0.06 -0.06,-0.12 -0.1,-0.18c-0.4,-0.69 -0.97,-1.3 -1.79,-1.79"/><path d="M180.55912,355.75989c-0.32,0.14 -0.66,0.22 -1.03,0.23c-1.56,0.05 -2.87,-1.17 -2.92,-2.74c0,-0.24 0.01,-0.47 0.06,-0.69c0.29,0.17 0.68,0.22 1.11,0.28c0.37,0.05 0.53,0 0.53,0c0.03,1.41 0.07,2.29 2.25,2.93"/><path d="M179.34912,350.3299c1.56,-0.05 2.87,1.17 2.92,2.74c0.03,0.81 -0.29,1.56 -0.83,2.09c-2.47,-0.56 -2.3,-1.32 -2.34,-2.66c-0.02,-0.57 -2.36,-0.36 -2.08,-0.81c0.48,-0.79 1.34,-1.33 2.33,-1.36"/><path d="M178.55912,355.84989c0.55,0.05 1.16,0.05 1.77,0c-0.25,0.08 -0.52,0.13 -0.79,0.14c-0.34,0.01 -0.67,-0.04 -0.98,-0.14M177.9891,360.2799l-0.03,-2.07l-1.17,0.96c-0.99,0.3 -1.63,-0.53 -0.98,-1.22l1.65,-1.75c0.61,0.4 1.34,0.62 2.11,0.6c0.78,-0.03 1.49,-0.3 2.07,-0.74c1.77,0.89 2.38,2.2 2.56,3.86l-0.31,0.17c-0.58,0.32 -1.52,0.43 -2.55,0.44c-1.1,0 -2.27,-0.11 -3.23,-0.22h-0.11z"/><path d="M178.66912,364.0599c-0.43,0.47 -1.27,0.69 -1.7,0.33c-0.35,-0.29 -0.25,-0.6 -0.14,-0.89c0.37,-0.97 1.2,-1.03 1.18,-2.41c1.97,0.24 4.84,0.48 6.26,-0.3c0.01,0.41 -0.34,1.46 -1.02,1.74l0.59,0.89c0.22,0.34 0.32,0.63 0.16,0.89c-0.16,0.26 -0.49,0.36 -0.8,0.36c-0.66,0.02 -1.01,-0.14 -1.22,-0.44l-1.05,-1.49h-1.04l-1.22,1.33"/></g></g></g></svg>