<svg version="1.1" xmlns="http://www.w3.org/2000/svg" xmlns:xlink="http://www.w3.org/1999/xlink" width="39.92882" height="35.71711" viewBox="0,0,39.92882,35.71711"><g transform="translate(-161.09845,-339.99138)"><g data-paper-data="{&quot;isPaintingLayer&quot;:true}" fill-rule="nonzero" stroke-linecap="butt" stroke-linejoin="miter" stroke-miterlimit="10" stroke-dasharray="" stroke-dashoffset="0" style="mix-blend-mode: normal"><path d="M187.14575,343.49862c0.87356,1.39757 1.23713,3.019 1.30803,4.43878c2.66606,1.31822 5.61947,2.64742 7.99738,4.00623c1.24732,0.71277 2.3348,1.42971 3.1534,2.20023c0.8186,0.77034 1.42257,1.63789 1.42257,2.66135c0,0.43552 -0.21244,0.79046 -0.45224,1.0509c-0.23971,0.26044 -0.52715,0.46269 -0.85448,0.65153c-0.65458,0.37759 -1.47988,0.69247 -2.38767,0.96467c-1.34862,0.40468 -2.85899,0.70536 -4.17225,0.8341c1.30629,2.25084 3.04461,4.31814 4.5683,6.29887c1.76097,2.28933 3.29834,4.48477 3.29834,6.92366c0,0.34841 0.00366,0.62035 -0.02665,0.89229c-0.03014,0.27202 -0.10539,0.60955 -0.37716,0.88148c-0.27194,0.27194 -0.60946,0.34711 -0.88148,0.37733c-0.27211,0.03022 -0.54387,0.02648 -0.89229,0.02648h-9.75844c-0.69535,0 -1.21065,0.04181 -1.73832,-0.30051c-0.52785,-0.3424 -0.71982,-0.80605 -1.09837,-1.50288l-0.00767,-0.01394l-0.00697,-0.01437c0,0 -0.84699,-1.72194 -1.85739,-3.43074c-0.5052,-0.85431 -1.05369,-1.70513 -1.53075,-2.30806c-0.23866,-0.30138 -0.462,-0.54039 -0.62279,-0.6754c-0.04913,-0.04111 -0.07151,-0.04878 -0.10313,-0.0662c-0.03171,0.01742 -0.054,0.02509 -0.10313,0.0662c-0.16079,0.13501 -0.38413,0.37402 -0.62279,0.6754c-0.47706,0.60293 -1.02555,1.45375 -1.53075,2.30806c-1.01048,1.70879 -1.85739,3.43082 -1.85739,3.43082l-0.00697,0.01446l-0.00767,0.01394c-0.37855,0.69683 -0.57227,1.16326 -1.1036,1.50471c-0.53124,0.34162 -1.04768,0.29876 -1.75295,0.29876h-9.71567c-0.35407,0 -0.6301,0.00357 -0.90413,-0.02648c-0.27403,-0.02979 -0.61042,-0.10243 -0.88523,-0.3728c-0.27472,-0.27028 -0.3532,-0.61138 -0.38413,-0.88462c-0.03083,-0.27324 -0.027,-0.54527 -0.027,-0.89368c0,-2.43889 1.53737,-4.63433 3.29834,-6.92358c1.52378,-1.98082 3.2621,-4.04812 4.5683,-6.29887c-1.31326,-0.12865 -2.82363,-0.42951 -4.17225,-0.83419c-0.90779,-0.27228 -1.73309,-0.58708 -2.38767,-0.96476c-0.32733,-0.18884 -0.61477,-0.39109 -0.85466,-0.65153c-0.23953,-0.26044 -0.45207,-0.61538 -0.45207,-1.0509c0,-1.02346 0.60397,-1.89101 1.42257,-2.66135c0.8186,-0.77052 1.90608,-1.48746 3.1534,-2.20023c2.37792,-1.35881 5.33133,-2.68792 7.99738,-4.00623c0.0709,-1.41996 0.43438,-3.04121 1.30803,-4.43896c0.97686,-1.56289 2.66823,-2.80734 5.02002,-2.80734c2.35179,0 4.04316,1.24436 5.02002,2.80734z" fill-opacity="0.55686" fill="#320303" stroke="none" stroke-width="1"/><path d="M185.02004,342.79875c0.87356,1.39757 1.23713,3.019 1.30803,4.43878c2.66606,1.31822 5.61947,2.64742 7.99738,4.00623c1.24732,0.71277 2.3348,1.42971 3.1534,2.20023c0.8186,0.77034 1.42257,1.63789 1.42257,2.66135c0,0.43552 -0.21244,0.79046 -0.45224,1.0509c-0.23971,0.26044 -0.52715,0.46269 -0.85448,0.65153c-0.65458,0.37759 -1.47988,0.69247 -2.38767,0.96467c-1.34862,0.40468 -2.85899,0.70536 -4.17225,0.8341c1.30629,2.25084 3.04461,4.31814 4.5683,6.29887c1.76097,2.28933 3.29834,4.48477 3.29834,6.92366c0,0.34841 0.00366,0.62035 -0.02665,0.89229c-0.03014,0.27202 -0.10539,0.60955 -0.37716,0.88148c-0.27194,0.27194 -0.60946,0.34711 -0.88148,0.37733c-0.27211,0.03022 -0.54387,0.02648 -0.89229,0.02648h-9.75844c-0.69535,0 -1.21065,0.04181 -1.73832,-0.30051c-0.52785,-0.3424 -0.71982,-0.80605 -1.09837,-1.50288l-0.00767,-0.01394l-0.00697,-0.01437c0,0 -0.84699,-1.72194 -1.85739,-3.43074c-0.5052,-0.85431 -1.05369,-1.70513 -1.53075,-2.30806c-0.23866,-0.30138 -0.462,-0.54039 -0.62279,-0.6754c-0.04913,-0.04111 -0.07151,-0.04878 -0.10313,-0.0662c-0.03171,0.01742 -0.054,0.02509 -0.10313,0.0662c-0.16079,0.13501 -0.38413,0.37402 -0.62279,0.6754c-0.47706,0.60293 -1.02555,1.45375 -1.53075,2.30806c-1.01048,1.70879 -1.85739,3.43082 -1.85739,3.43082l-0.00697,0.01446l-0.00767,0.01394c-0.37855,0.69683 -0.57227,1.16326 -1.1036,1.50471c-0.53124,0.34162 -1.04768,0.29876 -1.75295,0.29876h-9.71567c-0.35407,0 -0.6301,0.00357 -0.90413,-0.02648c-0.27403,-0.02979 -0.61042,-0.10243 -0.88523,-0.3728c-0.27472,-0.27028 -0.3532,-0.61138 -0.38413,-0.88462c-0.03083,-0.27324 -0.027,-0.54527 -0.027,-0.89368c0,-2.43889 1.53737,-4.63433 3.29834,-6.92358c1.52378,-1.98082 3.2621,-4.04812 4.5683,-6.29887c-1.31326,-0.12865 -2.82363,-0.42951 -4.17225,-0.83419c-0.90779,-0.27228 -1.73309,-0.58708 -2.38767,-0.96476c-0.32733,-0.18884 -0.61477,-0.39109 -0.85466,-0.65153c-0.23953,-0.26044 -0.45207,-0.61538 -0.45207,-1.0509c0,-1.02346 0.60397,-1.89101 1.42257,-2.66135c0.8186,-0.77052 1.90608,-1.48746 3.1534,-2.20023c2.37792,-1.35881 5.33133,-2.68792 7.99738,-4.00623c0.0709,-1.41996 0.43438,-3.04121 1.30803,-4.43896c0.97686,-1.56289 2.66823,-2.80734 5.02002,-2.80734c2.35179,0 4.04316,1.24436 5.02002,2.80734z" fill="#f6ff17" stroke="#fbff00" stroke-width="0"/></g></g></svg>